%TF.GenerationSoftware,KiCad,Pcbnew,9.0.5*%
%TF.CreationDate,2025-10-20T10:12:32-07:00*%
%TF.ProjectId,YBF,5942462e-6b69-4636-9164-5f7063625858,rev?*%
%TF.SameCoordinates,Original*%
%TF.FileFunction,Profile,NP*%
%FSLAX46Y46*%
G04 Gerber Fmt 4.6, Leading zero omitted, Abs format (unit mm)*
G04 Created by KiCad (PCBNEW 9.0.5) date 2025-10-20 10:12:32*
%MOMM*%
%LPD*%
G01*
G04 APERTURE LIST*
%TA.AperFunction,Profile*%
%ADD10C,0.100000*%
%TD*%
G04 APERTURE END LIST*
D10*
X101629750Y-43434730D02*
X101373940Y-42445667D01*
X135263839Y-158459536D02*
X137758845Y-158827692D01*
X102999422Y-61860663D02*
X103123236Y-60189254D01*
X191910291Y-61957558D02*
X192516747Y-63047607D01*
X183819501Y-92811487D02*
X182923234Y-93224562D01*
X72138112Y-111809160D02*
X71758678Y-110791780D01*
X185963265Y-144334036D02*
X185115441Y-143881571D01*
X100125785Y-37782677D02*
X99758475Y-36656292D01*
X68528576Y-109168819D02*
X68230338Y-109011366D01*
X167271561Y-85284622D02*
X166860444Y-83637434D01*
X108182162Y-37335998D02*
X107604313Y-37501710D01*
X173621476Y-95826914D02*
X173161229Y-95721336D01*
X125251494Y-78889664D02*
X124669339Y-80221945D01*
X100092090Y-140029341D02*
X98517612Y-141405882D01*
X124669339Y-80221945D02*
X124180722Y-81069763D01*
X95585238Y-65542608D02*
X95439060Y-66390424D01*
X86865962Y-45086009D02*
X86958905Y-45873267D01*
X97637802Y-58542068D02*
X97323830Y-59656340D01*
X116854112Y-87625116D02*
X115982072Y-88256693D01*
X102305412Y-108878139D02*
X101793175Y-110597998D01*
X74658010Y-145794485D02*
X75260178Y-147393225D01*
X71265055Y-109241489D02*
X70777112Y-107836538D01*
X225788728Y-134966658D02*
X226614076Y-133731268D01*
X86922850Y-44431980D02*
X86865962Y-45086009D01*
X191431653Y-60613163D02*
X191589181Y-61218744D01*
X181554612Y-154581407D02*
X184703648Y-154491709D01*
X194632932Y-71380431D02*
X193908875Y-73294072D01*
X202943814Y-142731783D02*
X201659982Y-143308714D01*
X96292094Y-63628967D02*
X95867404Y-64694793D01*
X201914327Y-55894924D02*
X201187627Y-55381431D01*
X75655696Y-148701284D02*
X76019330Y-149936674D01*
X76277582Y-110113529D02*
X76183147Y-109373869D01*
X76183147Y-109373869D02*
X75928802Y-109143751D01*
X64444511Y-106722261D02*
X64167941Y-107182508D01*
X135280221Y-33870610D02*
X134597461Y-34645756D01*
X216434041Y-99140362D02*
X216027261Y-99842840D01*
X217683713Y-98347979D02*
X217299100Y-98377327D01*
X93115168Y-43123920D02*
X93030385Y-43474189D01*
X161981358Y-43148144D02*
X161479421Y-41888530D01*
X172741483Y-95466991D02*
X172194856Y-94901281D01*
X124339309Y-63725859D02*
X124120778Y-64864357D01*
X121558595Y-83467873D02*
X121108905Y-84025005D01*
X144541375Y-29959051D02*
X143233315Y-29916212D01*
X181675736Y-106586758D02*
X182838456Y-105883896D01*
X165786542Y-59971244D02*
X165226045Y-59196098D01*
X76271913Y-126318930D02*
X75715189Y-124720196D01*
X232809140Y-99263964D02*
X232155110Y-98779323D01*
X106479939Y-45999186D02*
X107119278Y-45098122D01*
X137758845Y-158827692D02*
X139769378Y-159096193D01*
X69195080Y-130509573D02*
X70152593Y-132253652D01*
X75928802Y-109143751D02*
X75613899Y-109119490D01*
X81706066Y-156559576D02*
X82578105Y-157252767D01*
X191591630Y-80173496D02*
X191206708Y-81505783D01*
X187730508Y-89111904D02*
X186462113Y-90613752D01*
X65872797Y-124259954D02*
X66504614Y-126052477D01*
X224156869Y-97229937D02*
X223672406Y-96843155D01*
X136164374Y-33102124D02*
X135280221Y-33870610D01*
X168474679Y-64840133D02*
X168026460Y-63871199D01*
X193088483Y-75449950D02*
X192596627Y-76976020D01*
X162010690Y-55962284D02*
X161587796Y-54860121D01*
X96579189Y-38443829D02*
X96215839Y-38363231D01*
X173972718Y-154033281D02*
X175062768Y-154297445D01*
X189063847Y-144856344D02*
X187731561Y-144809664D01*
X208191686Y-59038645D02*
X208127919Y-58723743D01*
X75968377Y-111978727D02*
X76277582Y-110113529D01*
X105215856Y-134319963D02*
X104718224Y-134969873D01*
X96209960Y-74311452D02*
X96388182Y-75643736D01*
X102897478Y-63362509D02*
X102999422Y-61860663D01*
X87495441Y-43624605D02*
X87128747Y-43960254D01*
X165736783Y-151764776D02*
X166378705Y-151375276D01*
X179988683Y-117525867D02*
X179859479Y-115103537D01*
X125412953Y-60964399D02*
X124968293Y-61884888D01*
X110066094Y-145141245D02*
X110644353Y-146206289D01*
X92568046Y-37661560D02*
X92260575Y-38061245D01*
X93014884Y-42542560D02*
X93115168Y-43123920D01*
X88014540Y-48198707D02*
X88588833Y-48943950D01*
X206625253Y-71719557D02*
X206776360Y-70435721D01*
X74063448Y-111106687D02*
X73437821Y-111997295D01*
X155102744Y-158224142D02*
X156871045Y-157432405D01*
X231236550Y-121135145D02*
X231625432Y-119027716D01*
X231625432Y-119027716D02*
X232090291Y-116968729D01*
X97323830Y-59656340D02*
X96935538Y-61182409D01*
X102633694Y-65251928D02*
X102897478Y-63362509D01*
X68746586Y-109120371D02*
X68528576Y-109168819D01*
X163948369Y-153013040D02*
X164954316Y-152373041D01*
X154206483Y-32612038D02*
X152607743Y-31747853D01*
X125697436Y-77605825D02*
X125251494Y-78889664D01*
X197299210Y-58687408D02*
X197091832Y-59287977D01*
X92153416Y-39696319D02*
X92559060Y-41052826D01*
X211566708Y-130194666D02*
X210104508Y-132786558D01*
X101895107Y-126076704D02*
X102220800Y-126876074D01*
X176709950Y-95306065D02*
X175595673Y-95574411D01*
X211591542Y-151392054D02*
X212875375Y-150577578D01*
X162696076Y-153800245D02*
X163948369Y-153013040D01*
X202751828Y-79689033D02*
X203414258Y-78453644D01*
X102781103Y-127820784D02*
X103389110Y-128717039D01*
X143233315Y-29916212D02*
X142409724Y-29960317D01*
X211575978Y-60431488D02*
X211287976Y-59825904D01*
X162502969Y-56685259D02*
X162010690Y-55962284D01*
X89990442Y-147912981D02*
X88924617Y-147488222D01*
X205390366Y-55000769D02*
X204324544Y-55734541D01*
X107599014Y-93738562D02*
X108197240Y-94622709D01*
X210186585Y-152164862D02*
X211591542Y-151392054D01*
X197697682Y-57282454D02*
X197446233Y-57960709D01*
X102594487Y-43612989D02*
X102356450Y-43794664D01*
X78609706Y-153639295D02*
X80228443Y-155169256D01*
X109575000Y-144378210D02*
X110066094Y-145141245D01*
X195166604Y-69188218D02*
X194928384Y-70338827D01*
X67416302Y-127917669D02*
X68241232Y-129128843D01*
X216027261Y-99842840D02*
X215734280Y-100545313D01*
X230582635Y-98657604D02*
X229710595Y-99133009D01*
X73889725Y-117695429D02*
X74412398Y-116387369D01*
X69165552Y-107109838D02*
X69041039Y-108054548D01*
X226113431Y-97969030D02*
X225459401Y-98201975D01*
X193424046Y-59175030D02*
X192624677Y-59176380D01*
X141004767Y-30357319D02*
X139793605Y-30902307D01*
X208257192Y-57815369D02*
X208387585Y-56458860D01*
X233728707Y-104372600D02*
X233612092Y-102265171D01*
X124120778Y-64864357D02*
X123974728Y-67480473D01*
X138340205Y-31676255D02*
X137129037Y-32417670D01*
X233550122Y-110137751D02*
X234022042Y-108708578D01*
X80518009Y-137631231D02*
X80065855Y-136056707D01*
X60355323Y-114352610D02*
X60704890Y-115248876D01*
X160265786Y-38824279D02*
X159769433Y-37855347D01*
X175595673Y-95574411D02*
X174457181Y-95774214D01*
X62375851Y-110164518D02*
X61794491Y-110259962D01*
X205414594Y-154223436D02*
X207013333Y-153604437D01*
X191340844Y-144777986D02*
X189063847Y-144856344D01*
X227803265Y-98207765D02*
X227403581Y-97907759D01*
X119252221Y-86304651D02*
X117847270Y-87027311D01*
X85799807Y-158135931D02*
X87786121Y-158103350D01*
X99735601Y-82862286D02*
X100454350Y-84097675D01*
X69041039Y-108054548D02*
X68923235Y-108914474D01*
X123875399Y-69854361D02*
X123819747Y-71331983D01*
X103113806Y-50221355D02*
X103337495Y-49627883D01*
X215588151Y-102362062D02*
X215762330Y-103549009D01*
X193286500Y-64355667D02*
X194044396Y-65494162D01*
X147569287Y-30177854D02*
X145849435Y-30056701D01*
X188517918Y-88094524D02*
X187730508Y-89111904D01*
X97430704Y-37298210D02*
X97109583Y-38109692D01*
X82493881Y-142015646D02*
X81557388Y-140247351D01*
X64777685Y-106468609D02*
X64444511Y-106722261D01*
X102718298Y-107666971D02*
X102305412Y-108878139D01*
X63013130Y-118131449D02*
X64350658Y-119282061D01*
X126131648Y-156719965D02*
X127681939Y-157053972D01*
X108761142Y-42893799D02*
X109188092Y-42191322D01*
X81557388Y-140247351D02*
X81004358Y-139205744D01*
X115037362Y-151603380D02*
X115982072Y-152369093D01*
X127681939Y-157053972D02*
X129619807Y-157370951D01*
X204324544Y-55734541D02*
X203452504Y-56374454D01*
X185414475Y-91740137D02*
X184715756Y-92302797D01*
X92559060Y-41052826D02*
X93014884Y-42542560D01*
X105066883Y-102410511D02*
X103638102Y-105486872D01*
X206238191Y-54713837D02*
X205390366Y-55000769D01*
X124180722Y-81069763D02*
X123663798Y-81675344D01*
X161479421Y-41888530D02*
X160794995Y-40205009D01*
X124968293Y-61884888D02*
X124623957Y-62781149D01*
X103318226Y-56822210D02*
X103196263Y-55102355D01*
X189591191Y-100886587D02*
X190087773Y-100315195D01*
X103823912Y-48913296D02*
X105216755Y-47379916D01*
X105558933Y-78066067D02*
X104896005Y-76927571D01*
X94956649Y-144829451D02*
X93842375Y-145789575D01*
X166537927Y-61255079D02*
X165786542Y-59971244D01*
X85339878Y-145657991D02*
X84342302Y-144777105D01*
X106173587Y-78913885D02*
X105558933Y-78066067D01*
X216856900Y-98631672D02*
X216434041Y-99140362D01*
X92260575Y-38061245D02*
X92095002Y-38618382D01*
X87128747Y-43960254D02*
X86922850Y-44431980D01*
X208636300Y-152911932D02*
X210186585Y-152164862D01*
X97615329Y-51447781D02*
X98013263Y-52074440D01*
X196391408Y-59656503D02*
X195519368Y-59511944D01*
X195289239Y-68182952D02*
X195166604Y-69188218D01*
X91395396Y-43840331D02*
X89481752Y-43615085D01*
X61794491Y-110259962D02*
X61455365Y-110404077D01*
X179859479Y-115103537D02*
X179759343Y-113189890D01*
X157125493Y-34943558D02*
X155986995Y-33890588D01*
X134116071Y-35408791D02*
X133789296Y-36123379D01*
X103389110Y-128717039D02*
X104034486Y-129831316D01*
X195012189Y-95409971D02*
X197462243Y-91776472D01*
X144274916Y-159864424D02*
X145316518Y-159992105D01*
X98770913Y-80972866D02*
X99735601Y-82862286D01*
X139769378Y-159096193D02*
X142167487Y-159503775D01*
X186462113Y-90613752D02*
X185414475Y-91740137D01*
X104894921Y-40447243D02*
X103821737Y-41755302D01*
X233256284Y-99845323D02*
X232809140Y-99263964D01*
X100757665Y-117550089D02*
X100864220Y-119948198D01*
X141804137Y-30079398D02*
X141004767Y-30357319D01*
X137129037Y-32417670D02*
X136164374Y-33102124D01*
X207013333Y-54617005D02*
X206238191Y-54713837D01*
X71268319Y-134651762D02*
X72015718Y-136371614D01*
X108692008Y-95894434D02*
X108562838Y-96282011D01*
X60674992Y-111373140D02*
X60358205Y-112196737D01*
X152607743Y-31747853D02*
X151105895Y-30965385D01*
X191801080Y-99199385D02*
X192578294Y-98517082D01*
X197462243Y-91776472D02*
X199125287Y-89233023D01*
X145316518Y-159992105D02*
X146939484Y-160047563D01*
X219701363Y-143580969D02*
X220341969Y-142587816D01*
X109686431Y-39042289D02*
X109399407Y-38012798D01*
X132382932Y-40786369D02*
X132090695Y-42772682D01*
X156871045Y-157432405D02*
X158760465Y-156388533D01*
X80065855Y-136056707D02*
X79575715Y-134651762D01*
X102315586Y-67165572D02*
X102633694Y-65251928D01*
X219924363Y-99767950D02*
X219575261Y-99683355D01*
X101231072Y-85260395D02*
X102062863Y-86374672D01*
X164954316Y-152373041D02*
X165736783Y-151764776D01*
X168546330Y-75207716D02*
X168735867Y-74456792D01*
X68230338Y-109011366D02*
X67652116Y-108248331D01*
X172194856Y-94901281D02*
X171191392Y-93544773D01*
X69412716Y-106710153D02*
X69165552Y-107109838D01*
X218592809Y-145140455D02*
X219701363Y-143580969D01*
X139793605Y-30902307D02*
X138340205Y-31676255D01*
X191695599Y-59656340D02*
X191478425Y-60092359D01*
X146939484Y-160047563D02*
X148538224Y-159992437D01*
X162064053Y-46890647D02*
X162234181Y-45509917D01*
X81004358Y-139205744D02*
X80518009Y-137631231D01*
X102746404Y-73369134D02*
X101951315Y-71794619D01*
X93842375Y-145789575D02*
X92945690Y-146547014D01*
X101721569Y-71138197D02*
X101643280Y-70338827D01*
X167962533Y-87077145D02*
X167271561Y-85284622D01*
X102102105Y-43862732D02*
X101847760Y-43749633D01*
X167674256Y-77944954D02*
X167751309Y-77194030D01*
X226852239Y-97765938D02*
X226113431Y-97969030D01*
X161765591Y-49773223D02*
X161889382Y-47980697D01*
X175860158Y-137800787D02*
X175927117Y-137340551D01*
X217274060Y-108696464D02*
X217392884Y-110670668D01*
X97521330Y-78405195D02*
X98770913Y-80972866D01*
X132627034Y-39647873D02*
X132382932Y-40786369D01*
X74252354Y-120481115D02*
X74051234Y-119609075D01*
X131799907Y-157781427D02*
X133350198Y-158117678D01*
X170148377Y-92042931D02*
X169393948Y-90686422D01*
X97789076Y-57427794D02*
X97637802Y-58542068D01*
X73870329Y-118519026D02*
X73889725Y-117695429D01*
X111071870Y-84775932D02*
X110392428Y-83879665D01*
X61296684Y-116202089D02*
X61995139Y-117074129D01*
X109614505Y-41367729D02*
X109863025Y-40641029D01*
X128553979Y-58250490D02*
X127754609Y-58717709D01*
X179638917Y-111906057D02*
X179489926Y-111009790D01*
X93478601Y-50874282D02*
X94859331Y-50813537D01*
X79575715Y-134651762D02*
X78944867Y-132859228D01*
X63001340Y-110011705D02*
X62375851Y-110164518D01*
X216058045Y-104614832D02*
X216679551Y-105971340D01*
X87398547Y-146753958D02*
X86187382Y-146176031D01*
X178890050Y-141050966D02*
X178018010Y-140462397D01*
X214669396Y-124526407D02*
X213360272Y-127069857D01*
X105614039Y-146903337D02*
X107302575Y-145358465D01*
X98207297Y-55175025D02*
X97934974Y-56265075D01*
X83353252Y-157718565D02*
X84128398Y-158009451D01*
X121868340Y-155396925D02*
X123903100Y-156070913D01*
X192516747Y-63047607D02*
X193286500Y-64355667D01*
X217392884Y-110670668D02*
X217572419Y-112039284D01*
X227676614Y-132035643D02*
X228461655Y-130340006D01*
X168863023Y-73124511D02*
X168987763Y-69878583D01*
X75517647Y-113698580D02*
X75968377Y-111978727D01*
X208397588Y-59306768D02*
X208191686Y-59038645D01*
X199743863Y-88070303D02*
X200303147Y-86810692D01*
X204227647Y-141980776D02*
X202943814Y-142731783D01*
X65154521Y-119984533D02*
X65354987Y-120384218D01*
X179489926Y-111009790D02*
X179228188Y-109847071D01*
X102356450Y-43794664D02*
X102102105Y-43862732D01*
X161354382Y-54157645D02*
X161515046Y-52025993D01*
X181263932Y-141835928D02*
X180706799Y-141578264D01*
X103196263Y-55102355D02*
X103084580Y-52898033D01*
X210127087Y-68667417D02*
X210452580Y-68182952D01*
X101600107Y-125059324D02*
X101895107Y-126076704D01*
X96215839Y-38363231D02*
X95658701Y-37975682D01*
X232958794Y-112511639D02*
X233077859Y-111566929D01*
X72743907Y-138600157D02*
X73178425Y-140659143D01*
X211030770Y-65591057D02*
X211248357Y-64016539D01*
X61070274Y-110725376D02*
X60674992Y-111373140D01*
X195519368Y-59511944D02*
X194392983Y-59295854D01*
X169393948Y-90686422D02*
X168625455Y-88797003D01*
X155151193Y-33206152D02*
X154206483Y-32612038D01*
X203016484Y-56474819D02*
X202556237Y-56364118D01*
X161515046Y-52025993D02*
X161765591Y-49773223D01*
X172979554Y-153698896D02*
X173972718Y-154033281D01*
X101735837Y-69442563D02*
X102019456Y-68376738D01*
X105170280Y-132447435D02*
X105447845Y-133440588D01*
X91250056Y-147574945D02*
X90571802Y-147854547D01*
X151105895Y-30965385D02*
X150136964Y-30567626D01*
X202155694Y-81045536D02*
X202751828Y-79689033D01*
X100991218Y-121450046D02*
X101258953Y-123291017D01*
X126474782Y-59467755D02*
X125930947Y-60097561D01*
X145849435Y-30056701D02*
X144541375Y-29959051D01*
X225459401Y-98201975D02*
X225062508Y-98141418D01*
X233612092Y-102265171D02*
X233490853Y-100424200D01*
X74412398Y-116387369D02*
X75116278Y-114788629D01*
X90910930Y-157292662D02*
X92606562Y-156430818D01*
X179008885Y-108878139D02*
X179014699Y-108296780D01*
X167416501Y-62805373D02*
X166537927Y-61255079D01*
X103681799Y-136270574D02*
X102496457Y-137703901D01*
X149652495Y-159840998D02*
X151154343Y-159525129D01*
X131437192Y-51371963D02*
X131316754Y-54278761D01*
X131530879Y-47714241D02*
X131437192Y-51371963D01*
X215734280Y-100545313D02*
X215588689Y-101320461D01*
X109114758Y-37635253D02*
X108715073Y-37384766D01*
X207013333Y-153604437D02*
X208636300Y-152911932D01*
X202556237Y-56364118D02*
X201914327Y-55894924D01*
X177800000Y-94963812D02*
X176709950Y-95306065D01*
X179152028Y-127651216D02*
X179471490Y-125786024D01*
X113589187Y-88086296D02*
X112833608Y-87246712D01*
X97887249Y-153343386D02*
X99485986Y-152189169D01*
X188797395Y-101439239D02*
X189591191Y-100886587D01*
X65426936Y-122709658D02*
X65872797Y-124259954D01*
X109863025Y-40641029D02*
X109901780Y-40083893D01*
X165226045Y-59196098D02*
X164567563Y-58466134D01*
X103821737Y-41755302D02*
X103096442Y-42845352D01*
X186786851Y-144605455D02*
X185963265Y-144334036D01*
X206776360Y-70435721D02*
X207105264Y-69875061D01*
X180060712Y-120238878D02*
X179988683Y-117525867D01*
X75253190Y-123194126D02*
X74704882Y-121692278D01*
X189848042Y-84872824D02*
X189315148Y-86423115D01*
X102220800Y-126876074D02*
X102781103Y-127820784D01*
X84128398Y-158009451D02*
X85799807Y-158135931D01*
X103967266Y-75425726D02*
X102746404Y-73369134D01*
X98662394Y-35725813D02*
X98323269Y-35813356D01*
X211675370Y-61230858D02*
X211575978Y-60431488D01*
X83379655Y-143638613D02*
X82493881Y-142015646D01*
X109199542Y-144147303D02*
X109575000Y-144378210D01*
X60358205Y-112196737D02*
X60245240Y-113262560D01*
X101373940Y-42445667D02*
X100989656Y-40834816D01*
X65381433Y-121425825D02*
X65426936Y-122709658D01*
X107020387Y-37952240D02*
X106169687Y-38921173D01*
X216437016Y-147662172D02*
X217532788Y-146496969D01*
X92095002Y-38618382D02*
X92073461Y-39187629D01*
X187780015Y-102086512D02*
X188797395Y-101439239D01*
X183783166Y-105226375D02*
X185115441Y-104158018D01*
X197091832Y-59287977D02*
X196791093Y-59566721D01*
X206265679Y-73705871D02*
X206486997Y-73027616D01*
X88924617Y-147488222D02*
X87398547Y-146753958D01*
X109399407Y-38012798D02*
X109114758Y-37635253D01*
X179014699Y-108296780D02*
X179274319Y-107836538D01*
X222002496Y-97359947D02*
X221319535Y-98098761D01*
X99001520Y-35814332D02*
X98662394Y-35725813D01*
X166922196Y-82498936D02*
X167100140Y-81360443D01*
X95004671Y-37526321D02*
X94447535Y-37295292D01*
X133350198Y-158117678D02*
X135263839Y-158459536D01*
X63493576Y-109483721D02*
X63311465Y-109774401D01*
X195235337Y-67589478D02*
X195289239Y-68182952D01*
X105987655Y-91146664D02*
X106850187Y-92527393D01*
X115279593Y-88731239D02*
X114819352Y-88820726D01*
X130879504Y-55611045D02*
X130429042Y-56265075D01*
X72015718Y-136371614D02*
X72426036Y-137485891D01*
X95804041Y-50707420D02*
X96554965Y-50771514D01*
X97990186Y-36066642D02*
X97742058Y-36450394D01*
X88588833Y-48943950D02*
X89263742Y-49540159D01*
X87200799Y-46636302D02*
X87538837Y-47387226D01*
X123876744Y-72712712D02*
X124032378Y-73342521D01*
X164567563Y-58466134D02*
X163508241Y-57566145D01*
X73178425Y-140659143D02*
X73621543Y-142718130D01*
X111369387Y-147369009D02*
X112191892Y-148531729D01*
X207594693Y-54752357D02*
X207013333Y-54617005D01*
X92146320Y-147065855D02*
X91250056Y-147574945D01*
X61995139Y-117074129D02*
X63013130Y-118131449D01*
X232090291Y-116968729D02*
X232599507Y-114764408D01*
X192624677Y-59176380D02*
X192072739Y-59356802D01*
X89481752Y-43615085D02*
X88028353Y-43486326D01*
X220341969Y-142587816D02*
X221158620Y-141676523D01*
X129466611Y-57338519D02*
X128553979Y-58250490D01*
X197033318Y-144342745D02*
X194514096Y-144584387D01*
X106985983Y-98777012D02*
X106184616Y-100181963D01*
X96388182Y-75643736D02*
X96684197Y-76588446D01*
X180706799Y-141578264D02*
X179883202Y-141367132D01*
X228461655Y-130340006D02*
X229283513Y-128353689D01*
X92073650Y-50744675D02*
X93478601Y-50874282D01*
X216828793Y-119269947D02*
X216196381Y-121014027D01*
X220275605Y-99673084D02*
X219924363Y-99767950D01*
X208387585Y-56458860D02*
X208272813Y-55562599D01*
X106169687Y-38921173D02*
X104894921Y-40447243D01*
X199019635Y-144001985D02*
X197033318Y-144342745D01*
X182838456Y-105883896D02*
X183783166Y-105226375D01*
X96579189Y-143299204D02*
X94956649Y-144829451D01*
X129619807Y-157370951D02*
X131799907Y-157781427D01*
X178018010Y-140462397D02*
X176852601Y-139381033D01*
X101643280Y-70338827D02*
X101735837Y-69442563D01*
X209698060Y-69038930D02*
X210127087Y-68667417D01*
X184703648Y-154491709D02*
X187755788Y-154578226D01*
X216679551Y-105971340D02*
X217206254Y-107170395D01*
X223170297Y-96702690D02*
X222697942Y-96807672D01*
X198339970Y-56457238D02*
X197697682Y-57282454D01*
X209193433Y-69268804D02*
X209698060Y-69038930D01*
X174457181Y-95774214D02*
X173621476Y-95826914D01*
X66966517Y-107303621D02*
X66369908Y-106756067D01*
X219575261Y-99683355D02*
X219018128Y-99236057D01*
X230803449Y-123387915D02*
X231236550Y-121135145D01*
X123974728Y-67480473D02*
X123875399Y-69854361D01*
X93793506Y-37240147D02*
X93095705Y-37379964D01*
X61455365Y-110404077D02*
X61070274Y-110725376D01*
X97742058Y-36450394D02*
X97430704Y-37298210D01*
X100864220Y-119948198D02*
X100991218Y-121450046D01*
X199125287Y-89233023D02*
X199743863Y-88070303D01*
X200303147Y-86810692D02*
X200965463Y-84727484D01*
X103096442Y-42845352D02*
X102594487Y-43612989D01*
X208369836Y-69418364D02*
X209193433Y-69268804D01*
X215578000Y-122564318D02*
X214669396Y-124526407D01*
X105426946Y-133900835D02*
X105215856Y-134319963D01*
X179759343Y-113189890D02*
X179638917Y-111906057D01*
X123663798Y-81675344D02*
X122624812Y-82547384D01*
X72423209Y-112233072D02*
X72138112Y-111809160D01*
X158348672Y-36084888D02*
X157125493Y-34943558D01*
X99485986Y-152189169D02*
X101036280Y-150955381D01*
X64167941Y-107182508D02*
X63888567Y-107884981D01*
X97136325Y-51034265D02*
X97615329Y-51447781D01*
X194392983Y-59295854D02*
X193424046Y-59175030D01*
X126983472Y-59089574D02*
X126474782Y-59467755D01*
X217572419Y-112039284D02*
X217623151Y-113432127D01*
X74051234Y-119609075D02*
X73870329Y-118519026D01*
X103084580Y-52898033D02*
X103029025Y-51057060D01*
X205466538Y-140953669D02*
X204227647Y-141980776D01*
X168625455Y-88797003D02*
X167962533Y-87077145D01*
X208008866Y-55080874D02*
X207594693Y-54752357D01*
X107119278Y-45098122D02*
X108064691Y-43814285D01*
X217623151Y-113432127D02*
X217549199Y-115188314D01*
X200691045Y-155412031D02*
X201829537Y-155240118D01*
X221319535Y-98098761D02*
X220882302Y-98801233D01*
X101036280Y-150955381D02*
X103289049Y-148970014D01*
X103638102Y-105486872D02*
X102718298Y-107666971D01*
X201187627Y-55381431D02*
X200448808Y-55224240D01*
X76019330Y-149936674D02*
X76406691Y-150881384D01*
X97109583Y-38109692D02*
X96881980Y-38364745D01*
X105216755Y-47379916D02*
X106479939Y-45999186D01*
X86187382Y-146176031D02*
X85339878Y-145657991D01*
X95410767Y-67286688D02*
X95561088Y-68497853D01*
X125822789Y-75692182D02*
X125851909Y-76540000D01*
X68923235Y-108914474D02*
X68746586Y-109120371D01*
X179274319Y-107836538D02*
X179883202Y-107476999D01*
X179955884Y-122249416D02*
X180060712Y-120238878D01*
X99401205Y-36128169D02*
X99001520Y-35814332D01*
X108051379Y-81190876D02*
X106898724Y-79761703D01*
X173161229Y-95721336D02*
X172741483Y-95466991D01*
X163508241Y-57566145D02*
X162502969Y-56685259D01*
X112008094Y-86108213D02*
X111071870Y-84775932D01*
X206394574Y-139859774D02*
X205466538Y-140953669D01*
X97934974Y-56265075D02*
X97789076Y-57427794D01*
X107302575Y-145358465D02*
X108417298Y-144351328D01*
X98517612Y-141405882D02*
X96579189Y-143299204D01*
X233077859Y-111566929D02*
X233550122Y-110137751D01*
X153116433Y-158949686D02*
X155102744Y-158224142D01*
X101847760Y-43749633D02*
X101629750Y-43434730D01*
X229911347Y-126585394D02*
X230415974Y-124962427D01*
X134597461Y-34645756D02*
X134116071Y-35408791D01*
X230415974Y-124962427D02*
X230803449Y-123387915D01*
X223672406Y-96843155D02*
X223170297Y-96702690D01*
X123819747Y-71331983D02*
X123876744Y-72712712D01*
X93030385Y-43474189D02*
X92776126Y-43752437D01*
X149192254Y-30326083D02*
X147569287Y-30177854D01*
X92945690Y-146547014D02*
X92146320Y-147065855D01*
X215225041Y-148805059D02*
X216437016Y-147662172D01*
X191478425Y-60092359D02*
X191431653Y-60613163D01*
X74704882Y-121692278D02*
X74252354Y-120481115D01*
X168735867Y-74456792D02*
X168863023Y-73124511D01*
X108647393Y-95446306D02*
X108692008Y-95894434D01*
X211248357Y-64016539D02*
X211521767Y-62490469D01*
X166378705Y-151375276D02*
X166984280Y-151268824D01*
X212414098Y-128741266D02*
X211566708Y-130194666D01*
X132090695Y-42772682D02*
X131750703Y-45316132D01*
X198850068Y-155534689D02*
X200691045Y-155412031D01*
X169015595Y-67068678D02*
X168844586Y-65954407D01*
X100815466Y-114425280D02*
X100707419Y-115491108D01*
X214134991Y-149680612D02*
X215225041Y-148805059D01*
X95867404Y-64694793D02*
X95585238Y-65542608D01*
X168987763Y-69878583D02*
X169015595Y-67068678D01*
X194658509Y-66341978D02*
X195026643Y-66996008D01*
X194928384Y-70338827D02*
X194632932Y-71380431D01*
X224389527Y-137195211D02*
X225788728Y-134966658D01*
X103289049Y-148970014D02*
X105614039Y-146903337D01*
X233490853Y-100424200D02*
X233256284Y-99845323D01*
X234022042Y-108708578D02*
X234106110Y-107981878D01*
X182208642Y-142352205D02*
X181263932Y-141835928D01*
X70777112Y-107836538D02*
X70393106Y-107000833D01*
X124032378Y-73342521D02*
X124307740Y-73895471D01*
X92073461Y-39187629D02*
X92153416Y-39696319D01*
X201659982Y-143308714D02*
X200642602Y-143654177D01*
X169128045Y-151948957D02*
X171380814Y-152976637D01*
X155986995Y-33890588D02*
X155151193Y-33206152D01*
X168844586Y-65954407D02*
X168474679Y-64840133D01*
X167650430Y-151362001D02*
X169128045Y-151948957D01*
X207105264Y-69875061D02*
X207570466Y-69572539D01*
X226614076Y-133731268D02*
X227178910Y-132931898D01*
X203414258Y-78453644D02*
X204623452Y-76515776D01*
X101258953Y-123291017D02*
X101600107Y-125059324D01*
X189790547Y-154853537D02*
X192115987Y-155165537D01*
X92776126Y-43752437D02*
X92388552Y-43889450D01*
X208127919Y-58723743D02*
X208257192Y-57815369D01*
X94859331Y-50813537D02*
X95804041Y-50707420D01*
X220882302Y-98801233D02*
X220547871Y-99394707D01*
X210150250Y-59122235D02*
X209423550Y-59267999D01*
X166860444Y-83637434D02*
X166922196Y-82498936D01*
X213360272Y-127069857D02*
X212414098Y-128741266D01*
X192119294Y-78429417D02*
X191591630Y-80173496D01*
X142409724Y-29960317D02*
X141804137Y-30079398D01*
X151154343Y-159525129D02*
X153116433Y-158949686D01*
X101951315Y-71794619D02*
X101721569Y-71138197D01*
X192596627Y-76976020D02*
X192119294Y-78429417D01*
X190087773Y-100315195D02*
X190553582Y-99824867D01*
X104896005Y-76927571D02*
X103967266Y-75425726D01*
X176015923Y-138382147D02*
X175860158Y-137800787D01*
X69753465Y-106552883D02*
X69412716Y-106710153D01*
X112833608Y-87246712D02*
X112008094Y-86108213D01*
X162234181Y-45509917D02*
X162180714Y-44250305D01*
X63888567Y-107884981D02*
X63660941Y-108805469D01*
X232155110Y-98779323D02*
X231357777Y-98566887D01*
X72426036Y-137485891D02*
X72743907Y-138600157D01*
X96264285Y-154387751D02*
X97887249Y-153343386D01*
X75255351Y-109373835D02*
X74766712Y-110016638D01*
X179883202Y-141367132D02*
X178890050Y-141050966D01*
X63311465Y-109774401D02*
X63001340Y-110011705D01*
X103360580Y-58009154D02*
X103318226Y-56822210D01*
X82578105Y-157252767D02*
X83353252Y-157718565D01*
X66369908Y-106756067D02*
X65803452Y-106453274D01*
X196791093Y-59566721D02*
X196391408Y-59656503D01*
X65803452Y-106453274D02*
X65270539Y-106359604D01*
X75613899Y-109119490D02*
X75255351Y-109373835D01*
X185115441Y-104158018D02*
X186689965Y-102893269D01*
X219018128Y-99236057D02*
X218422520Y-98721708D01*
X92388552Y-43889450D02*
X91395396Y-43840331D01*
X222900250Y-139496424D02*
X224389527Y-137195211D01*
X217299100Y-98377327D02*
X216856900Y-98631672D01*
X181893746Y-93516209D02*
X180900582Y-93770828D01*
X167751309Y-77194030D02*
X168120690Y-76273541D01*
X70090980Y-106649774D02*
X69753465Y-106552883D01*
X124307740Y-73895471D02*
X124968928Y-74526326D01*
X63660941Y-108805469D02*
X63493576Y-109483721D01*
X160916348Y-155019430D02*
X162696076Y-153800245D01*
X177146565Y-134457968D02*
X177704259Y-133004568D01*
X77623938Y-152698133D02*
X78609706Y-153639295D01*
X104688395Y-131163603D02*
X105170280Y-132447435D01*
X108824078Y-144145426D02*
X109199542Y-144147303D01*
X160794995Y-40205009D02*
X160265786Y-38824279D01*
X179228188Y-109847071D02*
X179008885Y-108878139D01*
X167100140Y-81360443D02*
X167383805Y-80052383D01*
X180900582Y-93770828D02*
X179471410Y-94323011D01*
X171380814Y-152976637D02*
X172979554Y-153698896D01*
X60245240Y-113262560D02*
X60355323Y-114352610D01*
X209423550Y-59267999D02*
X208757413Y-59415015D01*
X190697812Y-82668503D02*
X190189236Y-83831222D01*
X207570466Y-69572539D02*
X208369836Y-69418364D01*
X104718224Y-134969873D02*
X103681799Y-136270574D01*
X116951003Y-153034830D02*
X118791980Y-154022730D01*
X191589181Y-61218744D02*
X191910291Y-61957558D01*
X200448808Y-55224240D02*
X199746335Y-55358560D01*
X115982072Y-152369093D02*
X116951003Y-153034830D01*
X103123236Y-60189254D02*
X103262925Y-58929640D01*
X96935538Y-61182409D02*
X96653928Y-62514693D01*
X233876004Y-105462650D02*
X233728707Y-104372600D01*
X194044396Y-65494162D02*
X194658509Y-66341978D01*
X176431378Y-136153604D02*
X177146565Y-134457968D01*
X166984280Y-151268824D02*
X167650430Y-151362001D01*
X114819352Y-88820726D02*
X114310662Y-88704552D01*
X196524628Y-155533235D02*
X198850068Y-155534689D01*
X133041053Y-38509377D02*
X132627034Y-39647873D01*
X109901780Y-40083893D02*
X109686431Y-39042289D01*
X73437821Y-111997295D02*
X73094673Y-112300083D01*
X192115987Y-155165537D02*
X194320313Y-155384416D01*
X89917772Y-157684851D02*
X90910930Y-157292662D01*
X194320313Y-155384416D02*
X196524628Y-155533235D01*
X100707419Y-115491108D02*
X100757665Y-117550089D01*
X101425416Y-138842394D02*
X100092090Y-140029341D01*
X193513356Y-97493174D02*
X195012189Y-95409971D01*
X131750703Y-45316132D02*
X131530879Y-47714241D01*
X210934422Y-59396496D02*
X210598389Y-59189412D01*
X159769433Y-37855347D02*
X159190522Y-36986147D01*
X133789296Y-36123379D02*
X133499263Y-37140758D01*
X91104716Y-50490392D02*
X92073650Y-50744675D01*
X176852601Y-139381033D02*
X176015923Y-138382147D01*
X110644353Y-146206289D02*
X111369387Y-147369009D01*
X199140748Y-55744260D02*
X198339970Y-56457238D01*
X92606562Y-156430818D02*
X94617100Y-155340059D01*
X201829537Y-155240118D02*
X203040711Y-154976412D01*
X179471490Y-125786024D02*
X179762193Y-123799707D01*
X120597337Y-85308844D02*
X120263135Y-85718754D01*
X106850187Y-92527393D02*
X107599014Y-93738562D01*
X210691075Y-67577368D02*
X210864716Y-66826444D01*
X215588689Y-101320461D02*
X215588151Y-102362062D01*
X161889382Y-47980697D02*
X162064053Y-46890647D01*
X187755788Y-154578226D02*
X189790547Y-154853537D01*
X227178910Y-132931898D02*
X227676614Y-132035643D01*
X106184616Y-100181963D02*
X105066883Y-102410511D01*
X234027135Y-107025055D02*
X233948731Y-106225685D01*
X175062768Y-154297445D02*
X176395043Y-154517904D01*
X203040711Y-154976412D02*
X204179204Y-154658071D01*
X76956507Y-151850321D02*
X77623938Y-152698133D01*
X108715073Y-37384766D02*
X108182162Y-37335998D01*
X208272813Y-55562599D02*
X208008866Y-55080874D01*
X187731561Y-144809664D02*
X186786851Y-144605455D01*
X98323269Y-35813356D02*
X97990186Y-36066642D01*
X203452504Y-56374454D02*
X203016484Y-56474819D01*
X76754552Y-127554319D02*
X76271913Y-126318930D01*
X78252788Y-131139376D02*
X77393454Y-129177286D01*
X175927117Y-137340551D02*
X176431378Y-136153604D01*
X95561088Y-68497853D02*
X95824231Y-70435721D01*
X100559049Y-39308746D02*
X100125785Y-37782677D01*
X150136964Y-30567626D02*
X149192254Y-30326083D01*
X158760465Y-156388533D02*
X160916348Y-155019430D01*
X88028353Y-43486326D02*
X87495441Y-43624605D01*
X206486997Y-73027616D02*
X206625253Y-71719557D01*
X96653928Y-62514693D02*
X96292094Y-63628967D01*
X73094673Y-112300083D02*
X72767658Y-112366299D01*
X99758475Y-36656292D02*
X99401205Y-36128169D01*
X124623957Y-62781149D02*
X124339309Y-63725859D01*
X180682572Y-107119480D02*
X181675736Y-106586758D01*
X131316754Y-54278761D02*
X131139159Y-55005461D01*
X179762193Y-123799707D02*
X179955884Y-122249416D01*
X96065118Y-72518927D02*
X96209960Y-74311452D01*
X72767658Y-112366299D02*
X72423209Y-112233072D01*
X227403581Y-97907759D02*
X226852239Y-97765938D01*
X161587796Y-54860121D02*
X161354382Y-54157645D01*
X211521767Y-62490469D02*
X211675370Y-61230858D01*
X188870980Y-87513164D02*
X188517918Y-88094524D01*
X95658701Y-37975682D02*
X95004671Y-37526321D01*
X73987895Y-143953520D02*
X74658010Y-145794485D01*
X199746335Y-55358560D02*
X199140748Y-55744260D01*
X159190522Y-36986147D02*
X158348672Y-36084888D01*
X197446233Y-57960709D02*
X197299210Y-58687408D01*
X70393106Y-107000833D02*
X70090980Y-106649774D01*
X216196381Y-121014027D02*
X215578000Y-122564318D01*
X194514096Y-144584387D02*
X191340844Y-144777986D01*
X104034486Y-129831316D02*
X104688395Y-131163603D01*
X231357777Y-98566887D02*
X230582635Y-98657604D01*
X65354987Y-120384218D02*
X65381433Y-121425825D01*
X217532788Y-146496969D02*
X218592809Y-145140455D01*
X103029025Y-51057060D02*
X103113806Y-50221355D01*
X179471410Y-94323011D02*
X177800000Y-94963812D01*
X200965463Y-84727484D02*
X201644051Y-82474714D01*
X176395043Y-154517904D02*
X178914277Y-154646261D01*
X105280959Y-90153511D02*
X105987655Y-91146664D01*
X96554965Y-50771514D02*
X97136325Y-51034265D01*
X117847270Y-87027311D02*
X116854112Y-87625116D01*
X104570887Y-89257244D02*
X105280959Y-90153511D01*
X127754609Y-58717709D02*
X126983472Y-59089574D01*
X107943501Y-97275164D02*
X106985983Y-98777012D01*
X101793175Y-110597998D02*
X101185382Y-112802318D01*
X113898000Y-150511763D02*
X115037362Y-151603380D01*
X75260178Y-147393225D02*
X75655696Y-148701284D01*
X121108905Y-84025005D02*
X120837966Y-84679035D01*
X148538224Y-159992437D02*
X149652495Y-159840998D01*
X130429042Y-56265075D02*
X129466611Y-57338519D01*
X204179204Y-154658071D02*
X205414594Y-154223436D01*
X71758678Y-110791780D02*
X71265055Y-109241489D01*
X190189236Y-83831222D02*
X189848042Y-84872824D01*
X76406691Y-150881384D02*
X76956507Y-151850321D01*
X70152593Y-132253652D02*
X71268319Y-134651762D01*
X67652116Y-108248331D02*
X66966517Y-107303621D01*
X215762330Y-103549009D02*
X216058045Y-104614832D01*
X75715189Y-124720196D02*
X75253190Y-123194126D01*
X120837966Y-84679035D02*
X120597337Y-85308844D01*
X88948841Y-157955217D02*
X89917772Y-157684851D01*
X66504614Y-126052477D02*
X66966692Y-127118299D01*
X168120690Y-76273541D02*
X168546330Y-75207716D01*
X162180714Y-44250305D02*
X161981358Y-43148144D01*
X218422520Y-98721708D02*
X218034943Y-98475540D01*
X100454350Y-84097675D02*
X101231072Y-85260395D01*
X94617100Y-155340059D02*
X96264285Y-154387751D01*
X90571802Y-147854547D02*
X89990442Y-147912981D01*
X200642602Y-143654177D02*
X199019635Y-144001985D01*
X133499263Y-37140758D02*
X133041053Y-38509377D01*
X100989656Y-40834816D02*
X100559049Y-39308746D01*
X94447535Y-37295292D02*
X93793506Y-37240147D01*
X120263135Y-85718754D02*
X119252221Y-86304651D01*
X183710496Y-143135725D02*
X182208642Y-142352205D01*
X102062863Y-86374672D02*
X103339045Y-87852293D01*
X232859952Y-113504797D02*
X232958794Y-112511639D01*
X190553582Y-99824867D02*
X191147050Y-99526119D01*
X234106110Y-107981878D02*
X234027135Y-107025055D01*
X228177167Y-98837568D02*
X227803265Y-98207765D01*
X167623467Y-78841215D02*
X167674256Y-77944954D01*
X218034943Y-98475540D02*
X217683713Y-98347979D01*
X125930947Y-60097561D02*
X125412953Y-60964399D01*
X195026643Y-66996008D02*
X195235337Y-67589478D01*
X89263742Y-49540159D02*
X90160006Y-50085843D01*
X105447845Y-133440588D02*
X105426946Y-133900835D01*
X182923234Y-93224562D02*
X181893746Y-93516209D01*
X87538837Y-47387226D02*
X88014540Y-48198707D01*
X125851909Y-76540000D02*
X125697436Y-77605825D01*
X109441441Y-82838064D02*
X108051379Y-81190876D01*
X122624812Y-82547384D02*
X121558595Y-83467873D01*
X210452580Y-68182952D02*
X210691075Y-67577368D01*
X217206254Y-107170395D02*
X217274060Y-108696464D01*
X108197240Y-94622709D02*
X108647393Y-95446306D01*
X131139159Y-55005461D02*
X130879504Y-55611045D01*
X171191392Y-93544773D02*
X170148377Y-92042931D01*
X108064691Y-43814285D02*
X108761142Y-42893799D01*
X232599507Y-114764408D02*
X232859952Y-113504797D01*
X107604313Y-37501710D02*
X107020387Y-37952240D01*
X210864716Y-66826444D02*
X211030770Y-65591057D01*
X73621543Y-142718130D02*
X73987895Y-143953520D01*
X115982072Y-88256693D02*
X115279593Y-88731239D01*
X142167487Y-159503775D02*
X144274916Y-159864424D01*
X87786121Y-158103350D02*
X88948841Y-157955217D01*
X185115441Y-143881571D02*
X183710496Y-143135725D01*
X229710595Y-99133009D02*
X228935441Y-99517084D01*
X118791980Y-154022730D02*
X120657172Y-154924559D01*
X192072739Y-59356802D02*
X191695599Y-59656340D01*
X212875375Y-150577578D02*
X214134991Y-149680612D01*
X106898724Y-79761703D02*
X106173587Y-78913885D01*
X186689965Y-102893269D02*
X187780015Y-102086512D01*
X217549199Y-115188314D02*
X217402303Y-116750719D01*
X225062508Y-98141418D02*
X224626489Y-97762848D01*
X80228443Y-155169256D02*
X81706066Y-156559576D01*
X66966692Y-127118299D02*
X67416302Y-127917669D01*
X68241232Y-129128843D02*
X69195080Y-130509573D01*
X114310662Y-88704552D02*
X113589187Y-88086296D01*
X201644051Y-82474714D02*
X202155694Y-81045536D01*
X193908875Y-73294072D02*
X193088483Y-75449950D01*
X95439060Y-66390424D02*
X95410767Y-67286688D01*
X177704259Y-133004568D02*
X178254044Y-131308943D01*
X228935441Y-99517084D02*
X228552625Y-99423689D01*
X229283513Y-128353689D02*
X229911347Y-126585394D01*
X96684197Y-76588446D02*
X97521330Y-78405195D01*
X78944867Y-132859228D02*
X78252788Y-131139376D01*
X184715756Y-92302797D02*
X183819501Y-92811487D01*
X224626489Y-97762848D02*
X224156869Y-97229937D01*
X221158620Y-141676523D02*
X222041348Y-140731813D01*
X167383805Y-80052383D02*
X167623467Y-78841215D01*
X103262925Y-58929640D02*
X103360580Y-58009154D01*
X112191892Y-148531729D02*
X112900681Y-149427984D01*
X75116278Y-114788629D02*
X75517647Y-113698580D01*
X207951772Y-136904531D02*
X206394574Y-139859774D01*
X102496457Y-137703901D02*
X101425416Y-138842394D01*
X110392428Y-83879665D02*
X109441441Y-82838064D01*
X98013263Y-52074440D02*
X98308872Y-52873808D01*
X96881980Y-38364745D02*
X96579189Y-38443829D01*
X95824231Y-70435721D02*
X96065118Y-72518927D01*
X189315148Y-86423115D02*
X188870980Y-87513164D01*
X77393454Y-129177286D02*
X76754552Y-127554319D01*
X192578294Y-98517082D02*
X193513356Y-97493174D01*
X108417298Y-144351328D02*
X108824078Y-144145426D01*
X228552625Y-99423689D02*
X228177167Y-98837568D01*
X233948731Y-106225685D02*
X233876004Y-105462650D01*
X220547871Y-99394707D02*
X220275605Y-99673084D01*
X112900681Y-149427984D02*
X113898000Y-150511763D01*
X222041348Y-140731813D02*
X222900250Y-139496424D01*
X191206708Y-81505783D02*
X190697812Y-82668503D01*
X168026460Y-63871199D02*
X167416501Y-62805373D01*
X98414627Y-53891188D02*
X98207297Y-55175025D01*
X103339045Y-87852293D02*
X104570887Y-89257244D01*
X208757413Y-59415015D02*
X208397588Y-59306768D01*
X222697942Y-96807672D02*
X222002496Y-97359947D01*
X90160006Y-50085843D02*
X91104716Y-50490392D01*
X178914277Y-154646261D02*
X181554612Y-154581407D01*
X101185382Y-112802318D02*
X100815466Y-114425280D01*
X178765389Y-129371069D02*
X179152028Y-127651216D01*
X102019456Y-68376738D02*
X102315586Y-67165572D01*
X125610879Y-75160323D02*
X125822789Y-75692182D01*
X84342302Y-144777105D02*
X83379655Y-143638613D01*
X210104508Y-132786558D02*
X207951772Y-136904531D01*
X191147050Y-99526119D02*
X191801080Y-99199385D01*
X98308872Y-52873808D02*
X98414627Y-53891188D01*
X120657172Y-154924559D02*
X121868340Y-155396925D01*
X205818284Y-74577910D02*
X206265679Y-73705871D01*
X93095705Y-37379964D02*
X92568046Y-37661560D01*
X103337495Y-49627883D02*
X103823912Y-48913296D01*
X64350658Y-119282061D02*
X65154521Y-119984533D01*
X210598389Y-59189412D02*
X210150250Y-59122235D01*
X109188092Y-42191322D02*
X109614505Y-41367729D01*
X123903100Y-156070913D02*
X126131648Y-156719965D01*
X124968928Y-74526326D02*
X125610879Y-75160323D01*
X108562838Y-96282011D02*
X107943501Y-97275164D01*
X178254044Y-131308943D02*
X178765389Y-129371069D01*
X74766712Y-110016638D02*
X74063448Y-111106687D01*
X179883202Y-107476999D02*
X180682572Y-107119480D01*
X217402303Y-116750719D02*
X217209103Y-117913439D01*
X86958905Y-45873267D02*
X87200799Y-46636302D01*
X217209103Y-117913439D02*
X216828793Y-119269947D01*
X60704890Y-115248876D02*
X61296684Y-116202089D01*
X211287976Y-59825904D02*
X210934422Y-59396496D01*
X65270539Y-106359604D02*
X64777685Y-106468609D01*
X204623452Y-76515776D02*
X205818284Y-74577910D01*
M02*
